<?xml version="1.0" encoding="utf-8"?>
<!-- Generator: Adobe Illustrator 22.1.0, SVG Export Plug-In . SVG Version: 6.00 Build 0)  -->
<svg version="1.1" id="レイヤー_1" xmlns="http://www.w3.org/2000/svg" xmlns:xlink="http://www.w3.org/1999/xlink" x="0px"
	 y="0px" viewBox="0 0 222.6999969 80" style="enable-background:new 0 0 222.6999969 80;" xml:space="preserve">
<style type="text/css">
	.st0{fill:url(#SVGID_1_);}
	.st1{fill:#231815;}
</style>
<linearGradient id="SVGID_1_" gradientUnits="userSpaceOnUse" x1="111.8936386" y1="80" x2="111.8936386" y2="-9.094947e-13">
	<stop  offset="0" style="stop-color:#182987"/>
	<stop  offset="0.5" style="stop-color:#1E85C7"/>
	<stop  offset="1" style="stop-color:#2CA6E0"/>
</linearGradient>
<path class="st0" d="M50.9601822,41.334156h-5.1748619v5.1748238h-3.0169716V41.334156H16.218195v-3.0170097h26.5501537V11.7670317
	h3.0169716v26.5501137h5.1748619V41.334156z M63.4970894,54.5711594L43.401535,74.6666718L8.7349024,40.000042L43.4015732,5.3333278
	l20.0955162,20.0955124h5.3333244L43.4015732,0l-40,40l40,40l25.4288406-25.4288406H63.4970894z M58.0386162,50.7699547V38.7780876
	c1.8241158-2.3983727,3.5689774-3.5975609,5.2358856-3.5975609c1.0471764,0,1.7929344,0.3014221,2.2379189,0.903614
	c0.4443359,0.6021919,0.6671524,1.6188354,0.6671524,3.0486374v11.6371765h3.3273239V38.2207184
	c0-4.1321907-1.7396698-6.1986122-5.2190018-6.1986122c-2.6348305,0-4.7181396,1.283638-6.249279,3.8509102v-3.445549v-8.3267498
	h-3.3273239v26.6692371H58.0386162z M76.8579254,50.7699547V38.8287582c1.0471725-1.4187546,2.052124-2.4237099,3.0148544-3.0148582
	c0.9627228-0.5911484,2.0800629-0.8867226,3.3526535-0.8867226c0.4053574,0,0.855545,0.0565186,1.3511963,0.1688995v2.5503845
	h2.4997177V32.444355c-1.2725983-0.2812805-2.4100723-0.4222488-3.4117737-0.4222488
	c-2.849205,0-5.1176529,1.283638-6.8066483,3.8509102v-3.445549h-3.3273239v18.3424873H76.8579254z M104.2047043,48.6333771
	c1.5369873-1.7058868,2.305481-4.0509911,2.305481-7.034668c0-2.9726295-0.7684937-5.3118896-2.305481-7.0177727
	c-1.5369797-1.7058868-3.651474-2.5588303-6.3421783-2.5588303c-2.6803055,0-4.7915497,0.8529434-6.3337326,2.5588303
	c-1.5428314,1.705883-2.3139191,4.0451431-2.3139191,7.0177727c0,2.9836769,0.7684937,5.3287811,2.3054733,7.034668
	c1.5369873,1.7058868,3.6508331,2.5588264,6.3421783,2.5588264
	C100.5532303,51.1922035,102.6677246,50.3392639,104.2047043,48.6333771z M94.1129608,46.8177071
	c-0.9010162-1.249855-1.3511963-2.989521-1.3511963-5.218998c0-2.2184296,0.4501801-3.9522476,1.3511963-5.2021027
	c0.9003601-1.2498589,2.1502228-1.8747864,3.7495651-1.8747864c1.5987015,0,2.8485565,0.6249275,3.7495728,1.8747864
	c0.9003677,1.249855,1.3511963,2.9836731,1.3511963,5.2021027c0,2.2294769-0.4508286,3.9691429-1.3511963,5.218998
	c-0.9010162,1.249855-2.1508713,1.8747864-3.7495728,1.8747864C96.2631836,48.6924934,95.0133209,48.0675621,94.1129608,46.8177071z
	 M112.9550018,50.7699547V38.7780876c1.8241196-2.3983727,3.5696259-3.5975609,5.2358856-3.5975609
	c1.0471802,0,1.7929382,0.3014221,2.2379227,0.903614s0.6671524,1.6188354,0.6671524,3.0486374v11.6371765h3.3273163V38.2207184
	c0-4.1321907-1.7396622-6.1986122-5.2189941-6.1986122c-2.6348343,0-4.7181396,1.283638-6.2492828,3.8509102v-3.445549h-3.3273239
	v18.3424873H112.9550018z M142.4299164,48.6333771c1.5369873-1.7058868,2.305481-4.0509911,2.305481-7.034668
	c0-2.9726295-0.7684937-5.3118896-2.305481-7.0177727c-1.5369873-1.7058868-3.651474-2.5588303-6.3421783-2.5588303
	c-2.6802979,0-4.7915497,0.8529434-6.333725,2.5588303c-1.5428314,1.705883-2.3139267,4.0451431-2.3139267,7.0177727
	c0,2.9836769,0.7685013,5.3287811,2.3054733,7.034668c1.5369873,1.7058868,3.6508331,2.5588264,6.3421783,2.5588264
	C138.7784424,51.1922035,140.8929291,50.3392639,142.4299164,48.6333771z M132.3381805,46.8177071
	c-0.9010162-1.249855-1.3511963-2.989521-1.3511963-5.218998c0-2.2184296,0.4501801-3.9522476,1.3511963-5.2021027
	c0.9003601-1.2498589,2.1502075-1.8747864,3.7495575-1.8747864c1.5987091,0,2.8485565,0.6249275,3.7495728,1.8747864
	c0.9003601,1.249855,1.3511963,2.9836731,1.3511963,5.2021027c0,2.2294769-0.4508362,3.9691429-1.3511963,5.218998
	c-0.9010162,1.249855-2.1508636,1.8747864-3.7495728,1.8747864
	C134.4883881,48.6924934,133.2385406,48.0675621,132.3381805,46.8177071z M153.8931885,51.1925316
	c2.4094238,0,4.3296814-0.5151443,5.7594757-1.545433c1.4298096-1.0302849,2.1450348-2.4126663,2.1450348-4.1464844
	c0-1.1933403-0.3352051-2.1645126-1.0049591-2.913517s-1.7708435-1.3934212-3.3019867-1.9338989l-4.2055969-1.4694252
	c-1.6552124-0.5742607-2.4828186-1.3174171-2.4828186-2.2294731c0-0.7431602,0.3631287-1.3343086,1.0894012-1.7734451
	c0.7262573-0.4391403,1.6974335-0.6587105,2.9135132-0.6587105c1.8130646,0,3.8171234,0.3319511,6.0128174,0.9965096v-2.7023926
	c-2.274292-0.529438-4.2731476-0.7938309-5.9959259-0.7938309c-2.2970428,0-4.0730743,0.456028-5.3287811,1.3680878
	c-1.2557068,0.912056-1.8832245,2.2015419-1.8832245,3.8677979c0,2.2742996,1.3908081,3.8619537,4.171814,4.76297
	l3.5637817,1.1654053c2.1053925,0.6755981,3.1584167,1.5480309,3.1584167,2.6179428
	c0,0.8334541-0.4417419,1.5226936-1.3258667,2.0690193s-2.0014496,0.8191643-3.3526459,0.8191643
	c-1.8806305,0-4.1101074-0.5573692-6.6884308-1.6721077v3.0064125
	C149.5355835,50.8040619,151.787796,51.1925316,153.8931885,51.1925316z M181.7044525,48.2198982
	c-1.3654938,0.3150635-2.7420197,0.4729195-4.1295929,0.4729195c-1.4668274,0-2.5835114-0.2533493-3.350708-0.7600479
	c-0.4287415-0.2929764-0.7080841-0.6359711-0.8379974-1.0302887c-0.1299286-0.3943138-0.1942444-1.1147385-0.1942444-2.1619148
	v-9.3908119h8.1409607v-2.4997139h-8.1409607v-3.9522495h-3.3273163v3.9522495h-4.577179v2.4997139h4.577179v8.8503342
	c0,2.7134361,0.4898071,4.5576897,1.4694214,5.5314598c0.9796295,0.9737701,2.8258209,1.4609833,5.539917,1.4609833
	c1.5538635,0,3.1636047-0.1461639,4.8305206-0.4391403V48.2198982z M200.749176,47.4091797
	c-2.1391754,0.8555412-4.1042633,1.283638-5.8945923,1.283638c-4.2335358,0-6.4747009-2.0774651-6.7221985-6.2323952h12.4985657
	v-1.0640678c0-3.2090912-0.5995941-5.5736847-1.7987823-7.0937805s-3.0655365-2.2801437-5.5990295-2.2801437
	c-2.5107574,0-4.5797729,0.9179039-6.2070465,2.7530632c-1.6272888,1.8351593-2.4405975,4.1776657-2.4405975,7.0262222
	c0,3.0174561,0.8470917,5.3372231,2.5419312,6.9586601s4.1185455,2.4321556,7.2711334,2.4321556
	c1.9254456,0,4.0425415-0.3826256,6.3506165-1.1485176V47.4091797z M189.7115936,35.9577904
	c0.8276062-0.9568787,1.9059601-1.4356461,3.2344208-1.4356461c2.7589111,0,4.1380463,1.6552162,4.1380463,4.9656487v0.4729156
	h-8.8503418C188.391571,38.2489777,188.8839874,36.9146729,189.7115936,35.9577904z M207.6675568,57.4418144v-8.7489967
	c1.3739319,1.666256,3.0460358,2.4997139,5.0163269,2.4997139c2.2970276,0,4.1549225-0.939991,5.5736847-2.8206253
	c1.4187469-1.8806305,2.1281281-4.3407173,2.1281281-7.380909c0-2.7699509-0.5995941-4.9572029-1.7987823-6.5617485
	s-2.8401031-2.4068184-4.9234161-2.4068184c-2.3873291,0-4.3855438,1.283638-5.9959412,3.8509102v-3.445549h-3.3273163v25.0140228
	H207.6675568z M207.6675568,38.3730545c1.6552124-2.3418579,3.422821-3.5131111,5.3034515-3.5131111
	c2.5783081,0,3.8677979,2.1619148,3.8677979,6.4857445c0,2.319767-0.4027557,4.123745-1.2076263,5.4132271
	c-0.8048706,1.2894859-1.9397583,1.9339027-3.4033356,1.9339027c-1.4973602,0-3.0174561-0.8334541-4.5602875-2.4997139V38.3730545z"
	/>
<g>
	<path class="st1" d="M118.5705566,68.2995453c-0.7717438,0.2767334-1.4986572,0.4151077-2.1807556,0.4151077
		c-1.192688,0-2.1534653-0.3572922-2.8823318-1.0725174s-1.0932999-1.6558609-1.0932999-2.8212662
		c0-1.1809998,0.3624802-2.1378822,1.0874481-2.8706474c0.7249756-0.7327614,1.6721115-1.099144,2.8414154-1.099144
		c0.6626053,0,1.3719788,0.1130333,2.1281357,0.3390961v1.0582199c-0.7717438-0.3546867-1.4928131-0.532032-2.1632156-0.532032
		c-0.7756424,0-1.413559,0.2845306-1.9144135,0.8535919s-0.7516022,1.2940292-0.7516022,2.1749039
		c0,0.8886719,0.2825851,1.615593,0.8477478,2.1807556s1.2920761,0.8477478,2.180748,0.8477478
		c0.5378799,0,1.171257-0.1403198,1.9001236-0.4209518V68.2995453z"/>
	<path class="st1" d="M122.3402634,68.6795731c-0.9315491,0-1.6630096-0.295578-2.1950455-0.8854294
		c-0.5320358-0.5911484-0.7983704-1.4025116-0.7983704-2.4353943c0-1.0289917,0.2669907-1.8390579,0.800972-2.4289093
		c0.5339813-0.5911484,1.2647934-0.8860741,2.1924438-0.8860741c0.9315491,0,1.6636581,0.2949257,2.195694,0.8860741
		c0.5320358,0.5898514,0.7977295,1.3999176,0.7977295,2.4289093c0,1.0328827-0.2656937,1.8442459-0.7977295,2.4353943
		C124.0039215,68.3839951,123.2718124,68.6795731,122.3402634,68.6795731z M122.3402634,67.8142853
		c0.5534744,0,0.9861145-0.2163239,1.2979202-0.6489639c0.311821-0.4326401,0.4677277-1.0348358,0.4677277-1.806572
		c0-0.7678452-0.1559067-1.3680916-0.4677277-1.8007317c-0.3118057-0.4326439-0.7444458-0.6489639-1.2979202-0.6489639
		c-0.5534668,0-0.9861145,0.21632-1.2979279,0.6489639c-0.3118134,0.4326401-0.46772,1.0328865-0.46772,1.8007317
		c0,0.7717361,0.1559067,1.3739319,0.46772,1.806572S121.7867966,67.8142853,122.3402634,67.8142853z"/>
	<path class="st1" d="M127.4494781,68.5334091v-6.3493233h1.1517639v1.192688
		c0.5846558-0.8886719,1.3700256-1.3330078,2.3561401-1.3330078c0.3468933,0,0.7405701,0.0487213,1.1809998,0.1461639v1.8007278
		h-0.8652802v-0.8828239c-0.1714935-0.0389748-0.3274078-0.0584641-0.4677277-0.0584641
		c-0.4404297,0-0.8276062,0.1026382-1.1608582,0.3066177c-0.333252,0.2052765-0.6807861,0.5528221-1.0432739,1.0439301v4.1334915
		H127.4494781z"/>
	<path class="st1" d="M133.6104126,70.8427811v-8.6586952h1.1517639v1.192688
		c0.557373-0.8886719,1.2492065-1.3330078,2.0755157-1.3330078c0.7210693,0,1.2888336,0.2780342,1.7039337,0.8328056
		c0.4151001,0.5560684,0.6229858,1.3128662,0.6229858,2.271698c0,1.0523758-0.2455597,1.9040222-0.7366638,2.5549316
		s-1.1342316,0.9763718-1.9293518,0.9763718c-0.6820984,0-1.26091-0.2884293-1.7364197-0.8652878v3.0284958H133.6104126z
		 M134.7621765,66.9489975c0.5339813,0.5768585,1.0601654,0.8652878,1.5785675,0.8652878
		c0.5066986,0,0.8990631-0.2228165,1.1777496-0.669754c0.2786713-0.4456329,0.4183502-1.0705643,0.4183502-1.8734818
		c0-1.4967117-0.4462891-2.2450676-1.3388672-2.2450676c-0.6509094,0-1.2628479,0.4053612-1.8358002,1.2160759V66.9489975z"/>
	<path class="st1" d="M143.086319,68.6795731c-0.9315338,0-1.6630096-0.295578-2.1950378-0.8854294
		c-0.5320282-0.5911484-0.7983704-1.4025116-0.7983704-2.4353943c0-1.0289917,0.266983-1.8390579,0.8009644-2.4289093
		c0.5339813-0.5911484,1.264801-0.8860741,2.1924438-0.8860741c0.9315491,0,1.6636658,0.2949257,2.195694,0.8860741
		c0.5320435,0.5898514,0.7977295,1.3999176,0.7977295,2.4289093c0,1.0328827-0.265686,1.8442459-0.7977295,2.4353943
		C144.7499847,68.3839951,144.017868,68.6795731,143.086319,68.6795731z M143.086319,67.8142853
		c0.5534821,0,0.9861145-0.2163239,1.2979279-0.6489639s0.4677277-1.0348358,0.4677277-1.806572
		c0-0.7678452-0.1559143-1.3680916-0.4677277-1.8007317c-0.3118134-0.4326439-0.7444458-0.6489639-1.2979279-0.6489639
		c-0.5534668,0-0.9861145,0.21632-1.2979279,0.6489639c-0.3118134,0.4326401-0.4677124,1.0328865-0.4677124,1.8007317
		c0,0.7717361,0.155899,1.3739319,0.4677124,1.806572S142.5328522,67.8142853,143.086319,67.8142853z"/>
	<path class="st1" d="M148.1948853,68.5334091v-6.3493233h1.1517639v1.192688
		c0.5846558-0.8886719,1.3700409-1.3330078,2.3561554-1.3330078c0.3468933,0,0.7405548,0.0487213,1.1809998,0.1461639v1.8007278
		h-0.8652954v-0.8828239c-0.1714935-0.0389748-0.3274078-0.0584641-0.4677124-0.0584641
		c-0.4404449,0-0.8269653,0.1026382-1.1602173,0.3066177c-0.333252,0.2052765-0.6814423,0.5528221-1.0439301,1.0439301v4.1334915
		H148.1948853z"/>
	<path class="st1" d="M158.1911469,67.7675095c-0.6976929,0.5846558-1.3934326,0.8769836-2.0872192,0.8769836
		c-0.5807495,0-1.0588684-0.1656494-1.4349976-0.4969559c-0.3761139-0.3313065-0.5645142-0.7503052-0.5645142-1.2570038
		c0-0.6587067,0.2923279-1.1887894,0.8769836-1.5902557c0.5846558-0.4014587,1.3563995-0.6021881,2.3152161-0.6021881h0.7132874
		v-0.5437241c0-0.4482384-0.0993958-0.7678452-0.298172-0.9588318c-0.1987915-0.1909866-0.5281372-0.2864799-0.9880676-0.2864799
		c-0.6665039,0-1.3563995,0.187088-2.0696716,0.561264v-0.98806c0.8178711-0.2923279,1.5844116-0.4384918,2.3009338-0.4384918
		c0.8055267,0,1.374588,0.1598053,1.70784,0.4794159c0.3325958,0.3196106,0.4989014,0.8711319,0.4989014,1.6545677v2.6601639
		c0,0.3819733,0.0409241,0.6424713,0.1227722,0.780838s0.2358093,0.2072296,0.4618835,0.2072296
		c0.0740509,0,0.19487-0.0194931,0.3624725-0.0584717l0.1052399,0.6898956
		c-0.3845673,0.1247253-0.676239,0.187088-0.8743744,0.187088C158.7725525,68.6444931,158.389267,68.3521652,158.1911469,67.7675095
		z M158.009903,67.0191574v-1.601944h-0.3449554c-1.5785522,0-2.3678284,0.426796-2.3678284,1.2803879
		c0,0.3079147,0.1013336,0.5554199,0.3040161,0.7425079s0.4716187,0.280632,0.8068085,0.280632
		C156.9107513,67.7207413,157.4447327,67.4868774,158.009903,67.0191574z"/>
	<path class="st1" d="M166.6679535,68.5275574c-0.5768585,0.1013412-1.1342316,0.1520157-1.6721039,0.1520157
		c-0.9393463,0-1.5785675-0.168251-1.9176636-0.5060501c-0.3390961-0.3365021-0.5086517-0.9750748-0.5086517-1.9144135v-3.0635757
		h-1.5844116V62.330246h1.5844116v-1.368084h1.1517639v1.368084h2.8180237v0.8652878h-2.8180237v3.2506638
		c0,0.3624878,0.0220947,0.6119385,0.0669098,0.7483597c0.0454712,0.1364136,0.1416168,0.2552948,0.2903748,0.356636
		c0.2657013,0.1753922,0.6522217,0.263092,1.1595612,0.263092c0.4807129,0,0.9568939-0.0545654,1.4298096-0.1637039V68.5275574z"/>
	<path class="st1" d="M170.4610443,68.5334091v-5.4840393h-2.3093719v-0.865284h3.4611359v6.3493233H170.4610443z
		 M170.3148804,60.7458382v-1.444088h1.4440918v1.444088H170.3148804z"/>
	<path class="st1" d="M177.6626587,68.6795731c-0.9315491,0-1.6630096-0.295578-2.1950378-0.8854294
		c-0.5320435-0.5911484-0.7983856-1.4025116-0.7983856-2.4353943c0-1.0289917,0.2669983-1.8390579,0.8009796-2.4289093
		c0.5339813-0.5911484,1.264801-0.8860741,2.1924438-0.8860741c0.9315491,0,1.6636658,0.2949257,2.195694,0.8860741
		c0.5320282,0.5898514,0.7977295,1.3999176,0.7977295,2.4289093c0,1.0328827-0.2657013,1.8442459-0.7977295,2.4353943
		C179.3263245,68.3839951,178.5942078,68.6795731,177.6626587,68.6795731z M177.6626587,67.8142853
		c0.5534668,0,0.9861145-0.2163239,1.2979279-0.6489639s0.4677277-1.0348358,0.4677277-1.806572
		c0-0.7678452-0.1559143-1.3680916-0.4677277-1.8007317c-0.3118134-0.4326439-0.7444611-0.6489639-1.2979279-0.6489639
		s-0.9861145,0.21632-1.2979279,0.6489639c-0.3118134,0.4326401-0.4677277,1.0328865-0.4677277,1.8007317
		c0,0.7717361,0.1559143,1.3739319,0.4677277,1.806572S177.1091919,67.8142853,177.6626587,67.8142853z"/>
	<path class="st1" d="M182.0345612,68.5334091v-6.3493233h1.1517639v1.192688
		c0.5300903-0.8886719,1.2511597-1.3330078,2.163208-1.3330078c1.2043915,0,1.8065796,0.7152252,1.8065796,2.1456718v4.3439713
		h-1.1517639v-4.0282593c0-0.4950027-0.0766602-0.8464432-0.2306061-1.0556183
		c-0.1539612-0.2078781-0.4125061-0.3124657-0.7749939-0.3124657c-0.5768585,0-1.1809998,0.4151039-1.8124237,1.2453117v4.1510315
		H182.0345612z"/>
</g>
</svg>
